<svg xmlns="http://www.w3.org/2000/svg" style="display:none">
  <symbol id="icon-grid" viewBox="0 0 24 24" fill="none" stroke="currentColor" stroke-width="1.75" stroke-linecap="round" stroke-linejoin="round">
    <path d="M3 10V3h7v7H3z"/><path d="M14 10V3h7v7h-7z"/><path d="M3 21v-7h7v7H3z"/><path d="M14 21v-7h7v7h-7z"/>
  </symbol>
  <symbol id="icon-building" viewBox="0 0 24 24" fill="none" stroke="currentColor" stroke-width="1.75" stroke-linecap="round" stroke-linejoin="round">
    <path d="M6 22V8l6-4 6 4v14"/><path d="M6 22h12"/><path d="M10 12h4"/><path d="M10 16h4"/><path d="M12 12v4"/>
  </symbol>
  <symbol id="icon-wrench" viewBox="0 0 24 24" fill="none" stroke="currentColor" stroke-width="1.75" stroke-linecap="round" stroke-linejoin="round">
    <path d="M14.7 6.3a1 1 0 0 0 0 1.4l1.6 1.6a1 1 0 0 0 1.4 0l3.77-3.77a6 6 0 0 1-7.94 7.94l-6.91 6.91a2.12 2.12 0 0 1-3-3l6.91-6.91a6 6 0 0 1 7.94-7.94l-3.76 3.76z"/>
  </symbol>
  <symbol id="icon-person" viewBox="0 0 24 24" fill="none" stroke="currentColor" stroke-width="1.75" stroke-linecap="round" stroke-linejoin="round">
    <circle cx="12" cy="8" r="3.5"/><path d="M5 20a7 7 0 0 1 14 0"/>
  </symbol>
  <symbol id="icon-folder" viewBox="0 0 24 24" fill="none" stroke="currentColor" stroke-width="1.75" stroke-linecap="round" stroke-linejoin="round">
    <path d="M4 19h16a2 2 0 0 0 2-2V7H6a2 2 0 0 0-2 2v10Z"/><path d="M4 7V5a2 2 0 0 1 2-2h12"/>
  </symbol>
  <symbol id="icon-menu" viewBox="0 0 24 24" fill="none" stroke="currentColor" stroke-width="1.75" stroke-linecap="round" stroke-linejoin="round">
    <path d="M4 7h16"/><path d="M4 12h16"/><path d="M4 17h16"/>
  </symbol>
  <symbol id="icon-phone" viewBox="0 0 24 24" fill="none" stroke="currentColor" stroke-width="1.75" stroke-linecap="round" stroke-linejoin="round">
    <path d="M5 4h4l2 5-2 1a11 11 0 0 0 5 5l1-2 5 2v4a2 2 0 0 1-2 2A15 15 0 0 1 3 6a2 2 0 0 1 2-2Z"/>
  </symbol>
</svg>
